<?xml version="1.0" standalone="no"?>
<!DOCTYPE svg PUBLIC "-//W3C//DTD SVG 20010904//EN"
 "http://www.w3.org/TR/2001/REC-SVG-20010904/DTD/svg10.dtd">
<svg version="1.0" xmlns="http://www.w3.org/2000/svg"
 width="666.000000pt" height="666.000000pt" viewBox="0 0 666.000000 666.000000"
 preserveAspectRatio="xMidYMid meet">
<metadata>
Created by potrace 1.11, written by Peter Selinger 2001-2013
</metadata>
<g transform="translate(0.000000,666.000000) scale(0.100000,-0.100000)"
fill="#000000" stroke="none">
<path d="M3138 6616 c-1 -2 -45 -6 -95 -10 -51 -4 -98 -8 -105 -11 -7 -2 -41
-6 -75 -10 -35 -3 -68 -7 -75 -10 -7 -2 -31 -7 -53 -10 -22 -3 -56 -10 -75
-15 -19 -5 -46 -11 -60 -14 -40 -7 -78 -17 -185 -47 -317 -90 -633 -237 -902
-419 -148 -100 -178 -122 -288 -214 -225 -187 -431 -413 -615 -675 -87 -124
-221 -368 -303 -551 -101 -226 -201 -585 -233 -835 -3 -27 -8 -59 -10 -69 -25
-133 -25 -697 1 -796 2 -8 7 -42 10 -75 4 -32 8 -62 10 -65 2 -4 7 -29 11 -56
8 -63 10 -70 24 -124 7 -25 14 -56 17 -70 7 -42 73 -261 99 -330 228 -599 556
-1054 1049 -1457 80 -65 242 -176 360 -248 188 -114 587 -292 716 -320 9 -2
47 -12 85 -24 70 -20 219 -55 284 -66 19 -3 46 -8 60 -10 133 -26 320 -40 550
-40 232 0 390 13 555 45 28 5 66 12 85 15 55 9 261 63 352 91 345 109 766 332
1024 544 17 14 42 34 55 44 59 47 155 133 231 209 336 332 585 712 762 1164
39 101 96 284 121 390 9 37 18 76 21 86 7 31 11 51 19 102 5 28 9 52 10 55 1
3 5 32 9 65 5 33 10 69 12 80 18 94 26 524 12 680 -8 87 -23 198 -38 285 -6
30 -13 69 -16 85 -6 36 -51 218 -64 260 -110 358 -228 612 -416 896 -189 286
-455 577 -689 756 -27 21 -59 46 -70 56 -27 25 -287 197 -350 232 -344 191
-713 326 -1044 381 -18 3 -43 7 -54 10 -28 5 -161 23 -222 30 -55 6 -501 14
-507 10z"/>
</g>
</svg>
